<svg xmlns="http://www.w3.org/2000/svg" xmlns:xlink="http://www.w3.org/1999/xlink" viewBox="0 0 513 514" fill="#fff" fill-rule="evenodd" stroke="#000" stroke-linecap="round" stroke-linejoin="round"><use xlink:href="#A" x=".5" y=".5"/><symbol id="A" overflow="visible"><g stroke="none" fill-rule="nonzero"><path d="M0 76.8C0 34.253 34.253 0 76.8 0h358.4C477.747 0 512 34.253 512 76.8v358.4c0 42.547-34.253 76.8-76.8 76.8H76.8C34.253 512 0 477.747 0 435.2z" fill="#7289da"/><path d="M346 392l-21-25c41-11 57-39 57-39-52 49-194 51-249 0 0 0 14 26 56 39l-23 25c-70-1-97-48-97-48 0-104 46-187 46-187 47-33 90-33 90-33l3 4c-58 16-83 42-83 42 68-46 208-42 263 0 1-1-33-28-86-42l5-4s43 0 90 33c0 0 46 83 46 187 0 0-27 47-97 48z"/><g fill="#7289da"><use xlink:href="#C"/><use xlink:href="#C" x="116"/></g></g></symbol><defs ><path id="C" d="M163 279c0-19.4 14.718-35 33-35s33 15.6 33 35-14.718 35-33 35-33-15.6-33-35z"/></defs></svg>