<svg xmlns="http://www.w3.org/2000/svg" xmlns:xlink="http://www.w3.org/1999/xlink" viewBox="0 0 257 210" fill="#fff" fill-rule="evenodd" stroke="#000" stroke-linecap="round" stroke-linejoin="round"><use xlink:href="#A" x=".5" y=".5"/><symbol id="A" overflow="visible"><path d="M80.507 208.013c96.604 0 149.442-80.036 149.442-149.442 0-2.274 0-4.537-.153-6.8 10.278-7.432 19.15-16.634 26.204-27.176a104.84 104.84 0 0 1-30.167 8.264c10.964-6.564 19.17-16.888 23.09-29.05a105.26 105.26 0 0 1-33.352 12.748C199.29-.754 173.422-4.99 152.47 6.223S120.692 41.31 126.065 64.46C83.834 62.343 44.488 42.396 17.818 9.583c-13.94 24-6.82 54.7 16.26 70.113a52.13 52.13 0 0 1-23.838-6.574v.665c.007 25.002 17.63 46.537 42.138 51.487a52.44 52.44 0 0 1-23.716.901c6.88 21.396 26.6 36.053 49.07 36.475a105.39 105.39 0 0 1-65.229 22.528c-4.18-.008-8.354-.26-12.503-.758 24.02 15.414 51.967 23.6 80.507 23.552" stroke="none" fill="#1da1f2" fill-rule="nonzero"/></symbol></svg>